<?xml version="1.0" standalone="no"?><!DOCTYPE svg PUBLIC "-//W3C//DTD SVG 1.1//EN" "http://www.w3.org/Graphics/SVG/1.1/DTD/svg11.dtd"><svg t="1528285273270" class="icon" style="" viewBox="0 0 1024 1024" version="1.1" xmlns="http://www.w3.org/2000/svg" p-id="2397" xmlns:xlink="http://www.w3.org/1999/xlink" width="32" height="32"><defs><style type="text/css"></style></defs><path d="M225.57506 511.99386 649.180847 88.388073c5.615904-5.624091 5.615904-14.716166 0-20.340257-5.617951-5.609765-14.718213-5.609765-20.334117 0L195.074396 501.827313c-5.616928 5.616928-5.616928 14.710027 0 20.333094l433.772334 433.786661c2.807952 2.807952 6.487761 4.211928 10.16757 4.211928s7.356548-1.403976 10.16757-4.211928c5.615904-5.616928 5.615904-14.71719 0-20.334117L225.57506 511.99386zM405.318794 511.99386 828.923558 88.388073c5.617951-5.624091 5.617951-14.716166 0-20.340257-5.615904-5.609765-14.716166-5.609765-20.332071 0L374.819153 501.827313c-5.616928 5.616928-5.616928 14.710027 0 20.333094l433.772334 433.786661c2.807952 2.807952 6.487761 4.211928 10.16757 4.211928 3.677762 0 7.356548-1.403976 10.165524-4.211928 5.617951-5.616928 5.617951-14.71719 0-20.334117L405.318794 511.99386z" p-id="2398" fill="#ffffff"></path></svg>