<?xml version="1.0" standalone="no"?><!DOCTYPE svg PUBLIC "-//W3C//DTD SVG 1.1//EN" "http://www.w3.org/Graphics/SVG/1.1/DTD/svg11.dtd"><svg t="1528285318645" class="icon" style="" viewBox="0 0 1024 1024" version="1.1" xmlns="http://www.w3.org/2000/svg" p-id="4301" xmlns:xlink="http://www.w3.org/1999/xlink" width="32" height="32"><defs><style type="text/css"></style></defs><path d="M828.929698 501.82936 395.145084 68.058049c-5.615904-5.624091-14.716166-5.624091-20.333094 0-5.615904 5.616928-5.615904 14.710027 0 20.326954l423.618067 423.610904-423.618067 423.617044c-5.615904 5.616928-5.615904 14.71719 0 20.334117 2.808976 2.807952 6.487761 4.211928 10.16757 4.211928 3.678786 0 7.357572-1.403976 10.166547-4.211928l433.784614-433.784614c2.696412-2.696412 4.212952-6.347568 4.212952-10.16757S831.626109 504.524748 828.929698 501.82936zM653.399939 511.995907c0-3.818979-1.51654-7.470135-4.212952-10.166547L215.402373 68.058049c-5.616928-5.624091-14.716166-5.624091-20.333094 0-5.616928 5.616928-5.616928 14.710027 0 20.326954l423.618067 423.610904-423.618067 423.617044c-5.616928 5.616928-5.616928 14.71719 0 20.334117 2.807952 2.807952 6.487761 4.211928 10.166547 4.211928s7.357572-1.403976 10.166547-4.211928l433.784614-433.784614C651.882376 519.466042 653.399939 515.814886 653.399939 511.995907z" p-id="4302" fill="#ffffff"></path></svg>